<?xml version="1.0" standalone="no"?>
<svg xmlns="http://www.w3.org/2000/svg" xmlns:xlink="http://www.w3.org/1999/xlink" height="797px" width="1920px">
  <defs>
    <pattern id="doodad" width="207" height="207" viewBox="0 0 40 40" patternUnits="userSpaceOnUse" patternTransform="rotate(135)">
      <rect width="100%" height="100%" fill="rgba(154, 230, 180,0)"/>
      <path d="M0 40a 9-9 0 0 0 9-9a 11-11 0 0 1 11-11a 9-9 0 0 0 9-9a 11-11 0 0 1 11-11v2a-9 9 0 0 0-9 9a-11 11 0 0 1-11 11a-9 9 0 0 0-9 9a-11 11 0 0 1-11 11zM0 0a 9-9 0 0 0 9-9h2a-11 11 0 0 1-11 11z" fill="rgba(154, 230, 180,1)"/>
      <path d="M0 0a 11 11 0 0 1 11 11a 9 9 0 0 0 9 9a 11 11 0 0 1 11 11a 9 9 0 0 0 9 9a 11 11 0 0 1 11 11a 9 9 0 0 1 9 9v2a-11-11 0 0 1-11-11a-9-9 0 0 0-9-9a-11-11 0 0 1-11-11a-9-9 0 0 0-9-9a-11-11 0 0 1-11-11a-9-9 0 0 0-9-9a-11-11 0 0 1-11-11a-9-9 0 0 1-9-9a-11-11 0 0 0-11-11h2a 9 9 0 0 1 9 9a 9 9 0 0 0 9 9zM-40 0a 11 11 0 0 1 11 11a 9 9 0 0 0 9 9a 11 11 0 0 1 11 11a 9 9 0 0 0 9 9a 11 11 0 0 1 11 11a 9 9 0 0 1 9 9v2a-11-11 0 0 1-11-11a-9-9 0 0 0-9-9a-11-11 0 0 1-11-11a-9-9 0 0 0-9-9a-11-11 0 0 1-11-11a-9-9 0 0 0-9-9a-11-11 0 0 1-11-11h2a 9 9 0 0 0 9 9zM40 0a 11 11 0 0 1 11 11h-2a-9-9 0 0 1-9-9a-11-11 0 0 1-11-11a-9-9 0 0 1-9-9a-11-11 0 0 1-11-11z" fill="rgba(144, 205, 244,1)"/>
    </pattern>
  </defs>
  <rect fill="url(#doodad)" height="200%" width="200%"/>
</svg>
