<svg xmlns="http://www.w3.org/2000/svg" viewBox="0 0 935.2 356.7"><defs><style>.a{fill:#fff;}</style></defs><title>mge-logo</title><path class="a" d="M467.7,120.3L448.6,91.7h-9.8v53.6h13.3v-27l12,18.5h7.4l11.9-18.4v26.9h13.3V91.7h-9.9Zm80.6,13.4H521.1v-9.3h23.7V113H521.1v-9.8h27.2V91.7H507.8v53.6h40.5V133.7Zm23.2-42H558.2v53.6h13.3V91.7ZM596,115.9l25.7,29.4H632V91.7H618.7v30.2L592.9,91.7H582.7v53.6H596V115.9Zm75,30.5c10,0,17-5,20.8-12.5l0.5,11.4h4.6V118.5h-0.1l0.2-1.3H670.6v5.1H691c-1.4,10.6-8.6,18.6-20,18.6s-22-10-22-22.2,9.8-22.9,22.4-22.9c8.3,0,16.6,4.6,19.3,13.4h6c-2.9-11.8-13.6-18.8-25.3-18.8a27.7,27.7,0,0,0-28,28.2A27.3,27.3,0,0,0,671,146.4Zm64.8-21c9-1.7,14.8-7.8,14.8-16.6,0-10.6-8.4-17.1-20.4-17.1H710.3v53.6h5.6V125.8h13.3L746,145.3h7Zm-19.9-4.7V96.8h14.2c8.7,0,15,4.5,15,12s-6.2,11.9-15,11.9H715.9Zm85,1.8c0,10.7-6.9,18.8-17.2,18.8s-17.2-8-17.2-18.8V91.7h-5.6v30.8c0,14.1,9.1,24,22.8,24s22.8-9.9,22.8-24V91.7h-5.6v30.8Zm64.5-30.8h-5.6v44l-35.1-44h-4.6v53.6h5.6V101.8l34.9,43.5h4.8V91.7h0Zm32.8,0H879.6v53.6h18.6c16.6,0,28.2-11.2,28.2-27.2S914.8,91.7,898.2,91.7Zm0,48.5h-13V96.8h13c13.1,0,22.4,8.9,22.4,21.3S911.4,140.2,898.2,140.2ZM441.6,226.4h37.2v-5.1H447.2V202.4h28.4v-5.2H447.2V178h31.6v-5.1H441.6v53.5Zm47.6,0h5.6V172.8h-5.6v53.6Zm59.4-9.7-35.1-44h-4.6v53.6h5.6V182.8l34.9,43.5h4.8V172.7h-5.6v44h0Zm62.9-44h-6.8L574,204.6V172.7h-5.6v53.6H574v-14l10.5-11,22.7,25.1h7.1l-25.9-29.2Zm32.2-1.1a27.9,27.9,0,1,0,27.9,27.9A27.9,27.9,0,0,0,643.7,171.6Zm-0.1,50.7c-12.4,0-22.2-10.3-22.2-22.7A22.3,22.3,0,1,1,643.6,222.3ZM708.9,209l-21.6-36.3H683v53.6h5.6l-0.2-41.6,18.6,31h3.8l18.4-30.8v41.3h5.6V172.6h-4.3Zm66,0-21.6-36.3H749v53.6h5.6l-0.2-41.6,18.6,31h3.8l18.4-30.8v41.3h5.6V172.6h-4.3Zm40,17.4h37.2v-5.1H820.5V202.4h28.4v-5.2H820.5V178h31.6v-5.1H814.9v53.5Zm87.4-9.7-35.1-44h-4.7v53.6h5.6V182.8l35,43.5h4.8V172.7h-5.6v44ZM352.7,82.1c0-42.8-34.9-77.8-77.6-77.8H83c-42.7,0-77.6,35-77.6,77.8V274.7c0,42.8,34.9,77.8,77.6,77.8H275.1a77.7,77.7,0,0,0,70.7-45.9l57.8-22.3L352.7,152V82.1h0Zm32,193.7-42.9,16.6-21.7-56.5a151.3,151.3,0,0,1-34.7,46.5c-29.2,26.7-67.9,42-106.3,42-80.4,0-145.8-65.5-145.8-146s65.4-146,145.8-146A144.9,144.9,0,0,1,295,89.9l-41.8,32a92.4,92.4,0,0,0-74-36.8,93.3,93.3,0,0,0-93.1,93.3c0,51.4,41.8,93.3,93.1,93.3,25.4,0,51.2-10.3,70.8-28.2,12-11,20.8-23.9,25.8-37.7l-73.3,13.1-8.1-45.4,141.4-25.2Z"/></svg>
