<?xml version="1.0" encoding="UTF-8"?>
<svg viewBox="0 0 324 80" version="1.1" xmlns="http://www.w3.org/2000/svg" xmlns:xlink="http://www.w3.org/1999/xlink">
    <!-- Generator: Sketch 49.3 (51167) - http://www.bohemiancoding.com/sketch -->
    <title>eleven-wordmark-standard</title>
    <desc>Created with Sketch.</desc>
    <defs/>
    <g id="eleven-wordmark-standard" stroke="none" stroke-width="1" fill="none" fill-rule="evenodd">
        <g id="Group-2">
            <path d="M0,79.9297654 L0,32.3809524 L32.8945631,32.3809524 L32.8945631,39.3341761 L8.45256438,39.3341761 L8.45256438,52.0466358 L29.8657275,52.0466358 L29.8657275,58.9998595 L8.45256438,58.9998595 L8.45256438,72.9765416 L33.1763152,72.9765416 L33.1763152,79.9297654 L0,79.9297654 Z M46.1369139,79.9297654 L46.1369139,36.1904762 L54.5894783,32.3809524 L54.5894783,72.9765416 L79.3132291,72.9765416 L79.3132291,79.9297654 L46.1369139,79.9297654 Z M87.9771076,79.9297654 L87.9771076,32.3809524 L120.871671,32.3809524 L120.871671,39.3341761 L96.429672,39.3341761 L96.429672,52.0466358 L117.842835,52.0466358 L117.842835,58.9998595 L96.429672,58.9998595 L96.429672,72.9765416 L121.153423,72.9765416 L121.153423,79.9297654 L87.9771076,79.9297654 Z M147.004182,79.9297654 L127.915474,32.3809524 L136.720229,32.3809524 L152.005283,70.3778621 L152.146159,70.3778621 L167.360775,32.3809524 L175.461149,32.3809524 L156.372441,79.9297654 L147.004182,79.9297654 Z M184.195466,79.9297654 L184.195466,32.3809524 L217.090029,32.3809524 L217.090029,39.3341761 L192.64803,39.3341761 L192.64803,52.0466358 L214.061193,52.0466358 L214.061193,58.9998595 L192.64803,58.9998595 L192.64803,72.9765416 L217.371781,72.9765416 L217.371781,79.9297654 L184.195466,79.9297654 Z M266.819282,79.9297654 L238.784944,44.8124737 L238.714506,80 L230.332379,79.9297654 L230.332379,32.3809524 L239.066696,32.3809524 L265.83315,66.0233179 L265.903588,32.3809524 L274.285714,32.3809524 L274.285714,79.9297654 L266.819282,79.9297654 Z" id="ELEVEN-Copy-13" fill="#2D2B41"/>
            <g id="Group" transform="translate(297.142857, 0.000000)" fill="#FCBF31">
                <polygon id="Rectangle-14" points="0 13.3333333 11.4285714 7.61904762 11.4285714 49.5238095 0 55.2380952"/>
                <polygon id="Rectangle-14-Copy" points="15.2380952 5.71428571 26.6666667 0 26.6666667 41.9047619 15.2380952 47.6190476"/>
            </g>
        </g>
    </g>
</svg>
